<svg width="628" height="626" viewBox="0 0 628 626" fill="none" xmlns="http://www.w3.org/2000/svg">
<path d="M606 318.5C606 477.834 476.834 607 317.5 607C158.166 607 29 477.834 29 318.5C29 159.166 158.166 30 317.5 30C476.834 30 606 159.166 606 318.5Z" fill="#0866FF"/>
<path d="M206.191 486.16L279.824 187.312H319.688L322.227 250.281L243.516 557H201.367L206.191 486.16ZM159.727 187.312L220.156 485.145V557H174.199L90.4102 187.312H159.727ZM398.652 483.875L458.066 187.312H527.637L443.848 557H397.891L398.652 483.875ZM338.73 187.312L412.363 487.176L416.68 557H374.531L296.074 250.027L299.121 187.312H338.73Z" fill="white"/>
<path d="M308 583C463.406 583 590 458.648 590 304.5C590 150.352 463.406 26 308 26C152.594 26 26 150.352 26 304.5C26 458.648 152.594 583 308 583Z" fill="#0866FF" fill-opacity="0.05" stroke="#0866FF" stroke-width="52"/>
</svg>
